<svg xmlns="http://www.w3.org/2000/svg" xmlns:xlink="http://www.w3.org/1999/xlink" width="500" height="206.9531" viewBox="0 0 500 206.9531"><defs><style>.cls-1{isolation:isolate;}.cls-2{fill:#a7d19f;}.cls-11,.cls-3,.cls-7,.cls-8{fill:#fff;}.cls-3{mix-blend-mode:soft-light;}.cls-4{fill:#80b278;}.cls-12,.cls-5{fill:#e63e25;}.cls-6{fill:#29547b;}.cls-7{opacity:0.2;}.cls-8{opacity:0.1;}.cls-10,.cls-9{fill:#eaf1f8;}.cls-10{fill-rule:evenodd;}.cls-11{opacity:0.58;}.cls-12{opacity:0.7;}.cls-13{fill:#172c49;}.cls-14{fill:url(#Unbenannter_Verlauf_11);}.cls-15{fill:url(#linear-gradient);}.cls-16{fill:url(#linear-gradient-2);}.cls-17{fill:url(#linear-gradient-3);}.cls-18{fill:#b6352e;}.cls-19{fill:url(#linear-gradient-4);}.cls-20{fill:url(#linear-gradient-5);}.cls-21{fill:url(#linear-gradient-6);}.cls-22{fill:url(#linear-gradient-7);}.cls-23{fill:url(#linear-gradient-8);}.cls-24{fill:url(#linear-gradient-9);}.cls-25{fill:url(#linear-gradient-10);}</style><linearGradient id="Unbenannter_Verlauf_11" x1="-1622.2108" y1="120.7428" x2="-1658.2811" y2="178.0853" gradientTransform="matrix(-1, 0, 0, 1, -1260.7167, 0)" gradientUnits="userSpaceOnUse"><stop offset="0.3721" stop-color="#e53e25"/><stop offset="0.4963" stop-color="#df3d26"/><stop offset="0.6676" stop-color="#cd3a2a"/><stop offset="0.8341" stop-color="#b5362e"/></linearGradient><linearGradient id="linear-gradient" x1="-1100.9841" y1="-1166.0859" x2="-1118.4123" y2="-1118.1582" gradientTransform="matrix(-1, 0, 0, 1, -1260.7167, 0)" gradientUnits="userSpaceOnUse"><stop offset="0" stop-color="#ff928e"/><stop offset="1" stop-color="#fe7062"/></linearGradient><linearGradient id="linear-gradient-2" x1="-1070.6236" y1="-1155.0449" x2="-1088.0518" y2="-1107.1172" xlink:href="#linear-gradient"/><linearGradient id="linear-gradient-3" x1="-1611.6234" y1="128.0911" x2="-1628.7337" y2="148.4385" gradientTransform="matrix(-1, 0, 0, 1, -1260.7167, 0)" gradientUnits="userSpaceOnUse"><stop offset="0" stop-color="#febbba"/><stop offset="1" stop-color="#ff928e"/></linearGradient><linearGradient id="linear-gradient-4" x1="-1631.5746" y1="146.6048" x2="-1597.374" y2="99.8164" xlink:href="#linear-gradient-3"/><linearGradient id="linear-gradient-5" x1="-1652.4962" y1="107.8313" x2="-1651.2364" y2="96.4934" xlink:href="#linear-gradient-3"/><linearGradient id="linear-gradient-6" x1="-1645.777" y1="97.9413" x2="-1651.3297" y2="79.6275" xlink:href="#linear-gradient-3"/><linearGradient id="linear-gradient-7" x1="-1651.5284" y1="99.6851" x2="-1657.081" y2="81.3712" xlink:href="#linear-gradient-3"/><linearGradient id="linear-gradient-8" x1="474.8578" y1="-35.7408" x2="404.5222" y2="75.6759" gradientUnits="userSpaceOnUse"><stop offset="0" stop-color="#e1473d"/><stop offset="1" stop-color="#e9605a"/></linearGradient><linearGradient id="linear-gradient-9" x1="486.7169" y1="-28.2537" x2="416.3815" y2="83.1625" xlink:href="#linear-gradient-8"/><linearGradient id="linear-gradient-10" x1="498.3203" y1="-20.9287" x2="427.9849" y2="90.4875" xlink:href="#linear-gradient-8"/></defs><g class="cls-1"><g id="Illustration"><path class="cls-2" d="M499.4028,25.4138c1.2268-.8032.4257-2.8747-1.1525-3-16.0258-1.2689-58.6612.0246-89.762,43.572-39.02,54.6366-67.36,61.1609-92.023,58.1244,0,0,24.6611,13.8527,54.124,7.9044C442.9275,117.4105,477.59,39.6958,499.4028,25.4138Z"/><path class="cls-3" d="M478.2067,33.9107c-6.2325,4.2862-12.3576,8.7057-18.2764,13.3675q-8.9209,6.9393-17.31,14.4732C437.0562,66.7967,431.6047,71.96,426.4186,77.38c-5.2141,5.393-10.1535,11.0386-15.09,16.7273a203.7168,203.7168,0,0,1-15.597,16.53,67.372,67.372,0,0,1-19.36,12.6291c-1.8127.7523-3.6513,1.4723-5.5306,2.07-1.8638.6347-3.7688,1.1827-5.688,1.6947a81.2486,81.2486,0,0,1-11.8473,2.1785,89.35,89.35,0,0,1-24.7622-1.027,1.8669,1.8669,0,0,1-1.5259-1.8218,1.3229,1.3229,0,0,1,1.5833-1.2708l.0061.0009c2.016.3007,4.03.5784,6.0358.7669,1.0041.11,2.0044.1761,3.0059.2607.9979.0469,2,.1325,2.9939.1486a81.0493,81.0493,0,0,0,33.986-6.2044,65.7426,65.7426,0,0,0,9.8643-5.2479,72.377,72.377,0,0,0,8.8013-6.7819,201.4764,201.4764,0,0,0,15.5277-16.1846c5.0259-5.6045,10.1207-11.1962,15.4726-16.5349q4.0008-4.0159,8.1667-7.8639c1.38-1.2914,2.7882-2.5521,4.194-3.8154q2.13-1.8721,4.2879-3.7126,8.6553-7.3358,17.8308-14.0527c6.1414-4.44,12.4248-8.6978,18.9-12.6813a.4576.4576,0,0,1,.5942.16A.3959.3959,0,0,1,478.2067,33.9107Z"/><path class="cls-4" d="M.9931,84.3005c-1.5962-.6254-1.1757-3.1876.6-3.7085,18.0342-5.29,67.1312-14.02,113.1485,28.362,57.7355,53.1751,91.7265,53.8538,119.2209,44.4727,0,0-24.9019,21.7574-60.04,22.0069C87.6491,176.046,29.3738,95.4192.9931,84.3005Z"/><path class="cls-2" d="M27.2824,88.9472c8.1583,3.4119,16.2255,7.0023,24.1148,10.9193q11.87,5.8039,23.2738,12.4159c7.5752,4.4407,15.05,9.0433,22.2823,14.0035,7.2579,4.9224,14.262,10.2,21.2732,15.5269,7.041,5.2785,14.1,10.6427,21.8062,15.1794a78.76,78.76,0,0,0,25.1783,9.8148c2.2544.4267,4.5307.81,6.8244,1.0444,2.2847.28,4.5959.4507,6.9146.577a94.9822,94.9822,0,0,0,14.0784-.3445,104.4536,104.4536,0,0,0,28.0891-7.1054,2.1828,2.1828,0,0,0,1.31-2.45,1.5466,1.5466,0,0,0-2.1162-1.0749l-.0067.0024c-2.2348.8269-4.4726,1.627-6.723,2.3231-1.1226.3665-2.2515.6815-3.3773,1.0181-1.1306.2927-2.2569.6306-3.39.8871a94.7552,94.7552,0,0,1-40.3757,1.04,76.8534,76.8534,0,0,1-12.5444-3.6427,84.6281,84.6281,0,0,1-11.6954-5.6526c-7.5235-4.34-14.56-9.5821-21.6442-14.8012-7.0932-5.21-14.2623-10.3879-21.665-15.2152q-5.54-3.6373-11.2284-7.0427c-1.8879-1.1474-3.8017-2.2526-5.7129-3.3616q-2.8857-1.632-5.7957-3.2213-11.661-6.3213-23.769-11.81c-8.0909-3.61-16.3006-6.9772-24.6643-9.9847a.5352.5352,0,0,0-.6416.3259A.463.463,0,0,0,27.2824,88.9472Z"/><path class="cls-2" d="M211.7375,171.7973a4.4439,4.4439,0,0,1-4.1761,6.0823c-17.4129-.1336-66.6113-4.9636-104.1645-51.9043C71.685,86.336,50.7226,67.8556,40.625,60.1255a2.7867,2.7867,0,0,1,1.7461-4.9979C72.0344,55.6465,169.1089,65.6838,211.7375,171.7973Z"/><path class="cls-3" d="M208.5684,174.6639a1.2336,1.2336,0,0,1-1.7267.8c-.6952-.3344-70.05-34.0471-116.6332-87.171a1.2324,1.2324,0,1,1,1.8532-1.625c46.2438,52.7374,115.1576,86.2431,115.8481,86.5753A1.2324,1.2324,0,0,1,208.5684,174.6639Z"/><path class="cls-4" d="M338.2921,135.5966a3.8012,3.8012,0,0,0,4.5621,4.3606c14.5553-3.163,54.8995-15.8276,78.1151-61.7081,19.6045-38.7441,33.9167-57.89,41.0162-66.1309A2.3836,2.3836,0,0,0,459.6479,8.24C434.9037,13.8719,355.3885,39.2853,338.2921,135.5966Z"/><path class="cls-2" d="M341.4477,137.4414a1.0556,1.0556,0,0,0,1.5858.3671c.5234-.4019,52.6824-40.78,82.3747-93.42a1.0541,1.0541,0,0,0-1.8363-1.0357C394.0959,95.61,342.27,135.7372,341.75,136.1364A1.054,1.054,0,0,0,341.4477,137.4414Z"/><path class="cls-5" d="M128.7166,183.0705a4.5429,4.5429,0,0,0,4.5318,4.5273H378.305a4.5429,4.5429,0,0,0,4.5317-4.5273l2.0392-140.8273a7.8918,7.8918,0,0,0-8.31-6.986L137.0693,29.06a11.42,11.42,0,0,0-11.718,11.68Z"/><path class="cls-6" d="M133.1907,178.727a4.3,4.3,0,0,0,4.2873,4.2873H372.3953a4.3,4.3,0,0,0,4.2873-4.2873l1.9243-127.8442c-.2267-7.6934-6.9716-10.4585-11.06-10.2952L138.0112,34.43a8.026,8.026,0,0,0-8.2342,8.2131Z"/><path class="cls-7" d="M374.144,117.9446h-.0087a.5811.5811,0,0,1-.5724-.59l.1522-10.3678a.5962.5962,0,0,1,.5892-.5724.5809.5809,0,0,1,.5724.59l-.1522,10.3678A.581.581,0,0,1,374.144,117.9446Z"/><path class="cls-7" d="M374.5171,92.5376h-.0086a.581.581,0,0,1-.5724-.59l.5831-39.71a7.5033,7.5033,0,0,0-2.1428-5.6194c-2.6291-2.5192-6.8-2.3887-6.9785-2.3835l-73.3616-1.9671a.5809.5809,0,0,1,.0154-1.1616l.016.0006,73.3212,1.967c.455-.0213,4.8609-.102,7.7913,2.7054a8.6281,8.6281,0,0,1,2.5009,6.4644l-.5834,39.7212A.581.581,0,0,1,374.5171,92.5376Z"/><rect class="cls-5" x="108.8366" y="186.9146" width="288.9121" height="12.3736" rx="0.2745" transform="translate(506.5852 386.2028) rotate(180)"/><path class="cls-8" d="M342.3077,167.438H160.1528a11.04,11.04,0,0,1-11.04-11.04V67.9293a11.04,11.04,0,0,1,11.2191-11.0388l182.1549,2.9518a11.04,11.04,0,0,1,10.8613,11.0388v85.5167A11.04,11.04,0,0,1,342.3077,167.438Z"/><path class="cls-9" d="M250.4149,148.4006a38.9357,38.9357,0,1,1,38.9357-38.9357A38.98,38.98,0,0,1,250.4149,148.4006Zm0-71.3466a32.411,32.411,0,1,0,32.411,32.4109A32.4476,32.4476,0,0,0,250.4149,77.054Z"/><path class="cls-10" d="M238.2178,124.4594V96.4674a3.8587,3.8587,0,0,1,5.8279-3.3185l23.5869,13.9959a3.8588,3.8588,0,0,1,0,6.6372l-23.5869,13.996A3.8588,3.8588,0,0,1,238.2178,124.4594Z"/><path class="cls-11" d="M343.7263,168.3294H168.0876a3.1551,3.1551,0,0,1-3.2431-3.059,3.12,3.12,0,0,1,3.0907-3.0591H343.5739a3.1981,3.1981,0,0,1,3.3955,3.0591A3.155,3.155,0,0,1,343.7263,168.3294Z"/><path class="cls-12" d="M240.3823,168.3294H167.9036a3.0591,3.0591,0,1,1,0-6.1181h72.4787a3.0591,3.0591,0,0,1,0,6.1181Z"/><circle class="cls-5" cx="240.5652" cy="164.7604" r="6.0399" transform="translate(-44.7391 104.6018) rotate(-22.5)"/><path class="cls-13" d="M180.41,20.448l4.3838,15.7977a7.67,7.67,0,0,1-.9972,6.2955c-3.0916,4.6559-10.65,13.0634-26.6748,17.3521-16.2756,4.3558-25.49-.1256-29.4546-3.0781a8.165,8.165,0,0,1-2.9727-4.2995l-4.7984-16.73Z"/><path class="cls-6" d="M145.7139.1141l45.5844,12.7694a3.0474,3.0474,0,0,1,1.16,5.2506c-9.0361,7.728-29.5718,25.7284-37.35,36.1826a3.0431,3.0431,0,0,1-3.6065.9913L105.379,36.2158a3.0474,3.0474,0,0,1-.8466-5.1058C113.4807,23.2537,136.253,3.5834,143.6556.2623A3.03,3.03,0,0,1,145.7139.1141Z"/><path class="cls-13" d="M146.7,23.6627s-24.3023,15.3291-26.1542,18.8314,1.8761,19.4225,1.8761,19.4225c-3.8259,13.4745-4.3924,28.1067,2.07,35.7613,0,0,7.9673-17.719,4.408-25.1874s-4.931-10.53-4.931-10.53-3.1138-16.9716-2.129-19.3978C121.84,42.5628,148.7626,24.6334,146.7,23.6627Z"/><path class="cls-9" d="M185.1641,17.1113,161.8347,40.124l-5.8323,5.7532-1.4581,1.4383-.7278.7154a4.3584,4.3584,0,0,1-4.4414.9825l-15.5362-5.2046a.2342.2342,0,0,0-.15.4436l15.4963,5.3221a4.9732,4.9732,0,0,0,5.0686-1.0877l.7381-.7146,1.469-1.4272,5.8757-5.7089L185.8392,17.801a.4825.4825,0,1,0-.6725-.6922Z"/><path class="cls-9" d="M124.2,70.104l.0462.049.0539.0638.1094.1294.21.2825c.1385.1906.26.4.3915.599l.3462.6368c.1077.2171.202.4421.3041.6629a6.6217,6.6217,0,0,1,.27.68c.0815.2307.1721.4583.2469.6917l.1986.71a7.2108,7.2108,0,0,1,.1813.7155l.1448.7261a7.3759,7.3759,0,0,1,.127.73c.0579.4917.1243.9829.1762,1.476l.0716,1.489c.0048.1242.0148.2482.0153.3726l-.0087.3734-.0173.7471c.0083.9981-.1281,1.99-.2083,2.9863-.0163.25-.057.4964-.0971.7434l-.1168.7414c-.08.494-.15.99-.2385,1.483-.2209.9772-.4213,1.96-.6593,2.9349l-.8171,2.9-.0024.0087a.1678.1678,0,0,0,.3217.0952l.898-2.896c.2654-.9755.4936-1.9621.7422-2.9438.1021-.4958.1865-.9958.2806-1.4939l.1376-.7481c.0472-.2491.0948-.4983.1181-.7513.1083-1.0093.2723-2.0144.2912-3.0342l.0374-.763.0186-.3816c.0028-.1273-.004-.2549-.0055-.3824l-.034-1.5312c-.04-.51-.095-1.019-.1422-1.5291-.0162-.256-.0705-.5076-.1119-.761l-.1312-.76c-.0354-.2549-.1093-.5027-.17-.7531l-.19-.75c-.0723-.2479-.1613-.4917-.2415-.7378a7.2746,7.2746,0,0,0-.2686-.73c-.1028-.2391-.1977-.4816-.3077-.7184l-.3577-.7c-.1394-.2254-.2659-.4558-.4175-.6768l-.2324-.33-.13-.1628-.0662-.0819-.0814-.09a.4825.4825,0,0,0-.7165.6463l.0054.0059Z"/><path class="cls-9" d="M123.4582,76.3754l.0011.9484-.0082,1.0691-.0279,2.1423-.0735,4.2874-.1728,8.5761a.2623.2623,0,0,0,.5242.0181l.3931-8.5708.1836-4.2869.0831-2.1454.0358-1.075.0133-.5418.0054-.2724c-.0008-.1171-.0088-.2558-.02-.3815a.47.47,0,0,0-.937.0421Z"/><path class="cls-14" d="M430.19,97.8859s13.6178,7.5437,14.7444,20.311.0938,65.759-27.2132,78.8017-63.4523,10.0368-77.288,8.6109-21.5069-10.8287-23.2206-17.3029-4.4815-30.5912,10.0733-38.3706,29.8417-19.6976,45.117-31.3028S413.856,88.0838,430.19,97.8859Z"/><path class="cls-13" d="M331.5774,154.3374s3.6754.1944,4.1261,7.7559c0,0-8.5226,7.64-20.0349,9.4585-.8643.1365,1.2083-5.9,1.52-6.7175C318.6709,160.9438,323.34,158.4381,331.5774,154.3374Z"/><path class="cls-13" d="M372.97,145.4464H365.214s-23.8052-26.2905-39.4183-28.9429c0,0-10.8682,13.8732.5789,39.7948a3.7835,3.7835,0,0,0,5.4174,1.7846,3.1017,3.1017,0,0,0,1.2378-1.4755l-.9206-22.1328s20.3059,17.76,23.8354,21.1869S377.4149,157,372.97,145.4464Z"/><path class="cls-13" d="M297.9861,200.6447a29.1579,29.1579,0,0,1,15.9047-6.96l2.5283,1.5464a27.5463,27.5463,0,0,1-4.5574,4.89c-2.7069,1.5722-6.8867,3.7017-10.352,4.1632C298.1407,204.733,297.6438,202.6972,297.9861,200.6447Z"/><path class="cls-15" d="M317.1884,164.8343c2.0023.6481,2.8829,3.4849,7.9638,1.609a44.9724,44.9724,0,0,0,10.45-5.5052c.042.3658.0773.7478.1016,1.1553,0,0-8.9862,8.5473-20.4985,10.3657a1.1457,1.1457,0,0,1-1.2376-1.5438A28.9138,28.9138,0,0,1,317.1884,164.8343Z"/><path class="cls-16" d="M295.5376,203.0767a26.8355,26.8355,0,0,1,2.4485-2.432c-.3423,2.0525.1546,4.0883,3.5236,3.64,3.4653-.4615,7.6451-2.591,10.352-4.1632-3.3927,2.8934-8.5547,5.9645-15.07,5.7842A1.7089,1.7089,0,0,1,295.5376,203.0767Z"/><path class="cls-13" d="M372.6861,151.0582l-36.3205.3933s-20.7418,17.1607-24.5039,43.3282c0,0-.6245,1.9245,3.1247,2.2537a72,72,0,0,0,20.7171-22.6708c10.026-17.7552,29.8888-9.7628,29.8888-9.7628,6.5264-4.7052,15.7484-5.6634,22.6959-7.231Z"/><path class="cls-17" d="M371.8284,121.8s-3.91,19.5951-23.0677,27.3471l-6.8146-.8032-1.6081,2.5639,15.985.5094a43.72,43.72,0,0,0,20.9032-20.1587C377.4654,130.7715,381.4519,122.54,371.8284,121.8Z"/><path class="cls-18" d="M369.7331,150.738s4.4463-12.0863,5.4019-23.83a51.3283,51.3283,0,0,0-5.2859-4.0016A1.47,1.47,0,0,1,369.2749,121c1.4948-3.0965,10.5345-15.2554,11.2116-15.4244,3.6806-.9186,18.7751-8.0956,29.4062,6.446,4.5624,6.2408-.9055,25.452-21.6045,45.3472l-4.27.8168Z"/><path class="cls-19" d="M386.866,129.5561s-12.3532,14.627-28.1469,16.7652c0,0-4.0818-3.7212-7.1169-2.3926s-7.1969,7.1928-7.1969,7.1928h20.2791s19.1746-.6756,28.7561-12.3031C392.67,134.75,390.3607,132.3194,386.866,129.5561Z"/><path class="cls-20" d="M394.0725,95.3164l2.703,9.0149a.9911.9911,0,0,1-.3849,1.1039,10.07,10.07,0,0,1-9.3683.9412,1.47,1.47,0,0,1-.9455-1.2622l-.6407-7.8534Z"/><path class="cls-21" d="M378.2454,88.0156s1.3289,9.3449,4.9187,12.2188,10.5837.71,12.946-6.335l-4.7068-12.0455Z"/><path class="cls-13" d="M391.9335,89.6486a.4625.4625,0,0,1-.6015-.3707,12.0786,12.0786,0,0,0-1.108-3.7326s.3426-1.2261-3.0984.626-8.61,4.5728-11.6524,2.9527c-2.9667-1.5795-5.9718-9.529,1.8687-8.0562a.4625.4625,0,0,0,.55-.4843c-.0963-1.3065.0333-4.3123,3.0772-5.2771,2.8484-.9028,1.3191.5605,1.9616,1.3367.1891.2283-.2386-.7775,3.8089-.1891,1.3887.2018,3.1706-3.485,6.5818-1.9817,2.81,1.2383,3.2468,2.9689,3.2,4.0474a.4611.4611,0,0,0,.6573.44,2.7762,2.7762,0,0,1,3.5706,1.0591c1.833,2.2967-.7865,4.2883-1.5723,4.8105a.4628.4628,0,0,0-.21.3819c-.0074,1.1944-.1934,6.4045-2.8046,9.3433a.4666.4666,0,0,1-.7757-.134l-2.0106-4.79a.4648.4648,0,0,0-.5711-.2625Z"/><path class="cls-22" d="M391.8911,90.6212s1.2277-5.0006,3.0927-3.3771-.4862,5.197-2.6227,5.8782Z"/><path class="cls-5" d="M345.4262,152.2565l-9.1053-30.3651a3.1048,3.1048,0,0,0-2.7622-2.2059l-12.2933-.8411a1.7435,1.7435,0,0,0-1.7641,2.3169L329.68,150.16a2.5523,2.5523,0,0,0,2.1517,1.694l12.1056,1.3442Z"/><path class="cls-18" d="M328.6336,132.1829c.68,1.3722,1.8538,2.176,2.6221,1.7954s.84-1.8016.16-3.1738-1.8537-2.176-2.6221-1.7953S327.9538,130.8107,328.6336,132.1829Z"/><path class="cls-18" d="M343.9375,153.1979c.02,0,.0395,0,.0594-.0015l25.7946-1.3038a1.156,1.156,0,1,0-.1168-2.3091L343.88,150.8873a1.156,1.156,0,0,0,.0573,2.3106Z"/><path class="cls-23" d="M375.1348,127.1122a.2046.2046,0,0,0,.2045-.2052c-.0175-5.3887,2.0622-12.5428,2.0836-12.6146a.2048.2048,0,1,0-.3931-.1149c-.0214.0721-2.1177,7.2821-2.1,12.7311A.2042.2042,0,0,0,375.1348,127.1122Z"/><path class="cls-24" d="M386.8656,129.7606a.2049.2049,0,0,0,.1609-.0776c.0563-.0718,5.6986-7.2433,7.638-12.1585a.2046.2046,0,1,0-.38-.1505c-1.918,4.8592-7.5222,11.984-7.5793,12.0553a.2047.2047,0,0,0,.0341.2873A.2025.2025,0,0,0,386.8656,129.7606Z"/><path class="cls-25" d="M394.8048,140.7258l.1521-.065c8.1619-3.4944,13.2034-13.2391,13.2534-13.3369a.2047.2047,0,0,0-.3646-.1863c-.0491.0963-4.9623,9.5909-12.8983,13.081l-.8409-1.1881a.2047.2047,0,0,0-.3345.2362Z"/><path class="cls-6" d="M392.7607,84.3341s-4.1874-8.1837-9.83-7.691a4.0537,4.0537,0,0,1,3.1519-.696c1.8089.3806,6.9967,3.6047,8.0911,8.2729C393.1722,84.8475,392.7607,84.3341,392.7607,84.3341Z"/><path class="cls-6" d="M393.5477,83.5733c3.1447-.1582,3.7445,3.7163,3.7445,3.7163.9173,2.6884.4646,4.2532-.3957,5.1639a2.4383,2.4383,0,0,1-4.0817-.8994c-.2462-.7325-.491-1.4261-.6109-1.6639C391.9134,89.3138,390.4031,83.7315,393.5477,83.5733Z"/><path class="cls-6" d="M393.5177,84.6a1.4024,1.4024,0,0,1,1.687.421c2.8457,3.6817,1.3408,6.9353.2783,7.267-1.12.35-2.4941-5.117-2.6113-6.5786A1.03,1.03,0,0,1,393.5177,84.6Z"/></g></g></svg>